<?xml version="1.0" encoding="utf-8"?>
<!-- Generator: Adobe Illustrator 16.0.0, SVG Export Plug-In . SVG Version: 6.00 Build 0)  -->
<!DOCTYPE svg PUBLIC "-//W3C//DTD SVG 1.1//EN" "http://www.w3.org/Graphics/SVG/1.1/DTD/svg11.dtd">
<svg version="1.1" id="Layer_1" xmlns="http://www.w3.org/2000/svg" xmlns:xlink="http://www.w3.org/1999/xlink" x="0px" y="0px"
	 width="78px" height="78px" viewBox="38.5 38.5 78 78" enable-background="new 38.5 38.5 78 78" xml:space="preserve">
<g id="Layer_2">
	<circle fill="none" stroke="#F2A308" stroke-width="3" stroke-miterlimit="10" cx="77.5" cy="77.5" r="37"/>
</g>
<g id="Capa_1">
	<g>
		<g>
			<path fill="#F2A308" d="M83.644,78.847V68.589l-7.974-1.65l-5.773,3.281l0.051,0.104l-0.056-0.013v10.096l7.777,1.972
				L83.644,78.847z M77.276,81.777L70.3,80.053v-9.191l6.977,1.61V81.777z M70.449,70.44l5.286-3.003l7.21,1.554l-5.3,3.116
				L70.449,70.44z"/>
			<rect x="58.499" y="64.231" fill="#F2A308" width="1.574" height="0.267"/>
			<rect x="58.499" y="64.844" fill="#F2A308" width="5.792" height="0.266"/>
			<rect x="58.499" y="65.64" fill="#F2A308" width="5.792" height="0.267"/>
			<rect x="58.499" y="67.365" fill="#F2A308" width="5.792" height="0.265"/>
			<rect x="58.499" y="67.995" fill="#F2A308" width="4.431" height="0.268"/>
			<path fill="#F2A308" d="M93.439,69.128c0.444,0,0.805,0.387,0.805,0.863c0,0.478-0.36,0.864-0.805,0.864
				c-0.441,0-0.802-0.386-0.802-0.864C92.638,69.515,92.998,69.128,93.439,69.128z"/>
			<path fill="#F2A308" d="M91.732,67.379c0.095,0.104,0.253,0.104,0.348,0c0.049-0.05,0.072-0.119,0.072-0.186
				s-0.023-0.135-0.072-0.188l-0.247-0.264h1.36v2.063h0.49v-2.063h1.36l-0.247,0.266c-0.096,0.103-0.096,0.27,0,0.373
				c0.095,0.103,0.251,0.103,0.344,0l0.671-0.716c0.048-0.05,0.07-0.115,0.07-0.186c0-0.07-0.022-0.136-0.07-0.187l-0.671-0.716
				c-0.093-0.102-0.247-0.102-0.344,0c-0.049,0.053-0.073,0.12-0.073,0.187s0.025,0.134,0.073,0.186l0.247,0.264h-1.36v-1.204
				l0.244,0.265c0.096,0.103,0.252,0.103,0.35,0c0.095-0.103,0.095-0.271,0-0.373l-0.667-0.714c-0.046-0.05-0.107-0.08-0.174-0.08
				s-0.129,0.028-0.175,0.08l-0.666,0.714c-0.097,0.103-0.097,0.269,0,0.373c0.047,0.051,0.11,0.077,0.173,0.077
				c0.063,0,0.126-0.025,0.173-0.077l0.247-0.265v1.202H91.83l0.246-0.262c0.096-0.104,0.096-0.271,0-0.375
				c-0.093-0.103-0.25-0.103-0.348,0l-0.665,0.718c-0.049,0.049-0.073,0.115-0.073,0.186c0,0.069,0.022,0.137,0.073,0.186
				L91.732,67.379z"/>
			<g>
				<path fill="#F2A308" d="M51.167,91.956v0.726c0,0,9.802,2.152,26.471,2.152c16.671,0,26.696-2.152,26.696-2.152v-0.726H51.167z"
					/>
				<path fill="#F2A308" d="M89.005,87.427h8.659v-7.912h-8.659V87.427z M89.746,80.313h7.179v6.318h-7.179V80.313z"/>
				<rect x="94.885" y="80.91" fill="#F2A308" width="1.576" height="0.35"/>
				<rect x="90.206" y="80.91" fill="#F2A308" width="0.787" height="1.689"/>
				<rect x="93.929" y="82.85" fill="#F2A308" width="1.744" height="0.623"/>
				<rect x="93.929" y="83.771" fill="#F2A308" width="1.744" height="0.623"/>
				<rect x="93.929" y="84.675" fill="#F2A308" width="1.744" height="0.619"/>
				<path fill="#F2A308" d="M99.426,60.666h-43.35c-0.614,0-1.11,0.535-1.11,1.194v27.456c0,0.658,0.497,1.193,1.11,1.193h43.351
					c0.419,0,1.111-0.18,1.102-0.625l0.01-1.943V61.86C100.536,61.199,100.039,60.666,99.426,60.666z M98.312,88.122H57.187v-25.07
					h41.124L98.312,88.122L98.312,88.122z"/>
			</g>
			<path fill="#F2A308" d="M61.993,80.931v0.8l1.604-0.013c1.199,0,1.862,0.71,1.858,1.951c0,1.426-0.739,2.158-1.98,2.15
				c-0.193,0-0.395,0-0.529-0.023v-3.119h-0.952v3.887c0.311,0.04,0.729,0.074,1.287,0.074c1.017,0,1.847-0.26,2.366-0.768
				c0.498-0.481,0.814-1.232,0.814-2.232c0-0.96-0.31-1.624-0.814-2.068c-0.48-0.433-1.156-0.649-2.134-0.649L61.993,80.931z"/>
			<path fill="#F2A308" d="M59.686,85.821c-0.498,0-0.987-0.214-1.188-0.346l-0.225,0.803c0.282,0.197,0.827,0.386,1.463,0.386
				c1.291,0,2.03-0.748,2.03-1.698c0-0.76-0.515-1.277-1.147-1.397v-0.017c0.639-0.242,0.962-0.727,0.962-1.313
				c0-0.73-0.554-1.372-1.629-1.372c-0.626,0-1.204,0.21-1.501,0.432l0.226,0.768c0.217-0.157,0.642-0.354,1.065-0.354
				c0.571,0,0.837,0.319,0.837,0.698c0,0.56-0.58,0.784-1.038,0.784h-0.44v0.775h0.458c0.603,0,1.18,0.285,1.18,0.948
				C60.746,85.364,60.439,85.821,59.686,85.821z"/>
		</g>
	</g>
</g>
</svg>
