<?xml version="1.0" encoding="utf-8"?>
<!-- Generator: Adobe Illustrator 16.0.0, SVG Export Plug-In . SVG Version: 6.00 Build 0)  -->
<!DOCTYPE svg PUBLIC "-//W3C//DTD SVG 1.1//EN" "http://www.w3.org/Graphics/SVG/1.1/DTD/svg11.dtd">
<svg version="1.1" id="Layer_1" xmlns="http://www.w3.org/2000/svg" xmlns:xlink="http://www.w3.org/1999/xlink" x="0px" y="0px"
	 width="78px" height="78px" viewBox="0 0 78 78" enable-background="new 0 0 78 78" xml:space="preserve">
<g id="Layer_2">
	<circle fill="none" stroke="#F2A308" stroke-width="3" stroke-miterlimit="10" cx="39" cy="39.5" r="37"/>
</g>
<g id="Capa_1">
	<g>
		<g>
			<path fill="#F2A308" d="M45.145,40.848V30.589L37.17,28.94l-5.773,3.28l0.051,0.104l-0.055-0.014v10.097l7.776,1.972
				L45.145,40.848z M38.775,43.777L31.8,42.053v-9.191l6.978,1.611v9.304H38.775L38.775,43.777z M31.949,32.439l5.285-3.002
				l7.211,1.554l-5.301,3.116L31.949,32.439z"/>
			<rect x="19.999" y="26.23" fill="#F2A308" width="1.573" height="0.268"/>
			<rect x="19.999" y="26.844" fill="#F2A308" width="5.792" height="0.266"/>
			<rect x="19.999" y="27.641" fill="#F2A308" width="5.792" height="0.267"/>
			<rect x="19.999" y="29.365" fill="#F2A308" width="5.792" height="0.265"/>
			<rect x="19.999" y="29.995" fill="#F2A308" width="4.431" height="0.269"/>
			<path fill="#F2A308" d="M54.939,31.128c0.442,0,0.805,0.388,0.805,0.863c0,0.478-0.36,0.864-0.805,0.864
				c-0.441,0-0.803-0.387-0.803-0.864C54.139,31.516,54.498,31.128,54.939,31.128z"/>
			<path fill="#F2A308" d="M53.232,29.379c0.095,0.104,0.252,0.104,0.348,0c0.049-0.05,0.072-0.119,0.072-0.186
				s-0.023-0.135-0.072-0.188l-0.247-0.264h1.36v2.063h0.49v-2.063h1.358l-0.247,0.266c-0.096,0.103-0.096,0.271,0,0.373
				c0.096,0.103,0.251,0.103,0.346,0l0.67-0.716c0.049-0.05,0.069-0.115,0.069-0.186s-0.021-0.137-0.069-0.188l-0.67-0.716
				c-0.095-0.103-0.248-0.103-0.346,0c-0.049,0.053-0.072,0.12-0.072,0.187c0,0.067,0.024,0.135,0.072,0.188l0.247,0.264h-1.358
				v-1.204l0.244,0.266c0.096,0.103,0.252,0.103,0.35,0c0.095-0.104,0.095-0.271,0-0.373l-0.668-0.715
				c-0.045-0.05-0.106-0.08-0.174-0.08c-0.066,0-0.129,0.028-0.174,0.08L54.096,26.9c-0.098,0.103-0.098,0.269,0,0.373
				c0.047,0.051,0.109,0.076,0.172,0.076c0.063,0,0.127-0.024,0.174-0.076l0.246-0.266v1.202H53.33l0.246-0.262
				c0.096-0.104,0.096-0.271,0-0.375c-0.094-0.104-0.25-0.104-0.348,0l-0.666,0.718c-0.049,0.049-0.072,0.115-0.072,0.186
				c0,0.069,0.021,0.138,0.072,0.187L53.232,29.379z"/>
			<g>
				<path fill="#F2A308" d="M12.667,53.956v0.726c0,0,9.802,2.152,26.472,2.152c16.67,0,26.695-2.152,26.695-2.152v-0.726H12.667z"
					/>
				<path fill="#F2A308" d="M50.505,49.427h8.659v-7.911h-8.659V49.427z M51.246,42.313h7.179v6.318h-7.179V42.313z"/>
				<rect x="56.385" y="42.91" fill="#F2A308" width="1.576" height="0.35"/>
				<rect x="51.706" y="42.91" fill="#F2A308" width="0.787" height="1.689"/>
				<rect x="55.43" y="44.85" fill="#F2A308" width="1.743" height="0.623"/>
				<rect x="55.43" y="45.771" fill="#F2A308" width="1.743" height="0.623"/>
				<rect x="55.43" y="46.675" fill="#F2A308" width="1.743" height="0.619"/>
				<path fill="#F2A308" d="M60.926,22.666h-43.35c-0.614,0-1.11,0.535-1.11,1.193v27.458c0,0.658,0.497,1.191,1.11,1.191h43.352
					c0.418,0,1.11-0.18,1.102-0.625l0.011-1.941V23.859C62.036,23.199,61.539,22.666,60.926,22.666z M59.813,50.122H18.688v-25.07
					h41.123L59.813,50.122L59.813,50.122z"/>
			</g>
			<path fill="#F2A308" d="M23.493,42.932v0.799l1.604-0.013c1.198,0,1.861,0.71,1.857,1.951c0,1.426-0.739,2.158-1.98,2.149
				c-0.192,0-0.395,0-0.529-0.022v-3.119h-0.951v3.888c0.311,0.039,0.729,0.074,1.287,0.074c1.017,0,1.847-0.261,2.365-0.769
				c0.498-0.481,0.814-1.231,0.814-2.231c0-0.961-0.311-1.625-0.814-2.068c-0.479-0.434-1.155-0.648-2.133-0.648L23.493,42.932z"/>
			<path fill="#F2A308" d="M21.186,47.82c-0.498,0-0.986-0.213-1.188-0.346l-0.225,0.803c0.281,0.197,0.826,0.387,1.463,0.387
				c1.291,0,2.029-0.748,2.029-1.698c0-0.76-0.515-1.276-1.146-1.397v-0.017c0.639-0.241,0.962-0.727,0.962-1.313
				c0-0.73-0.554-1.372-1.629-1.372c-0.626,0-1.204,0.21-1.501,0.432l0.227,0.768c0.217-0.155,0.641-0.354,1.064-0.354
				c0.57,0,0.837,0.319,0.837,0.698c0,0.56-0.58,0.784-1.038,0.784h-0.439v0.773h0.457c0.604,0,1.18,0.285,1.18,0.948
				C22.246,47.364,21.939,47.82,21.186,47.82z"/>
		</g>
	</g>
</g>
</svg>
