<?xml version="1.0" encoding="utf-8"?>
<!-- Generator: Adobe Illustrator 16.0.0, SVG Export Plug-In . SVG Version: 6.00 Build 0)  -->
<!DOCTYPE svg PUBLIC "-//W3C//DTD SVG 1.1//EN" "http://www.w3.org/Graphics/SVG/1.1/DTD/svg11.dtd">
<svg version="1.1" id="Layer_1" xmlns="http://www.w3.org/2000/svg" xmlns:xlink="http://www.w3.org/1999/xlink" x="0px" y="0px"
	 width="78px" height="78px" viewBox="0 0 78 78" enable-background="new 0 0 78 78" xml:space="preserve">
<g id="Layer_2">
	<circle fill="none" stroke="#255373" stroke-width="3" stroke-miterlimit="10" cx="40.75" cy="40.348" r="37"/>
</g>
<g id="Capa_1">
	<g>
		<path fill="#255373" d="M58.63,15.532l-0.003,0.002c-0.057,0.024-0.081,0.054-0.081,0.054l0.017,0.02L47.625,27.837H18.766v32.888
			H61.68V27.837h-5.012l6.684-7.474l-0.035-0.037c0.084-0.248,0.568-1.646-1.334-3.592C60.077,14.788,58.857,15.432,58.63,15.532
			L58.63,15.532z M31.831,49.621v7.023h-9.25v-7.023H31.831z M49.188,49.621v1.938v1.014v2.754v1.128v0.192H32.594v-7.024
			L49.188,49.621L49.188,49.621z M57.863,49.621v1.122h-7.914v-1.122H57.863z M57.863,53.389v1.121h-7.914v-1.121H57.863z
			 M49.949,56.646v-0.191v-1.13h7.914v1.321H49.949L49.949,56.646z M49.949,52.57v-1.012h7.914v1.012H49.949z M49.949,48.805v-1.02
			h7.914v1.02H49.949z M57.863,45.848v1.121h-7.914v-1.121H57.863z M57.863,31.916v13.115h-7.914v-4.283h-0.762v4.283v2.754v1.02
			H32.594h-0.763H22.58v-5.406h1.77v-1.631h-1.77v-9.852h14.21v1.286h1.524v-1.286h5.662l-0.658,0.738
			c0.844,0.179,1.882,0.838,2.77,1.67c1.073,1.004,1.842,2.165,2.053,3.049l4.879-5.457H57.863L57.863,31.916z"/>
		<path fill="#255373" d="M45.861,34.675c-1.25-1.149-2.322-1.587-2.863-1.61c-0.165-0.006-0.374,0.39-0.374,0.459
			c0,0.002,0,0.004,0,0.004l-0.104,0.935l-0.078,0.696l-0.356,3.177c0.003,0,0.004-0.002,0.008-0.002
			c0.222-0.019,0.479,0.091,0.71,0.299c0.11,0.101,0.356,0.365,0.379,0.697l2.891-0.907l0.625-0.197l0.779-0.242
			c0.172,0.014,0.394-0.197,0.394-0.256C47.863,37.141,47.162,35.871,45.861,34.675z M46.947,37.299l-0.469,0.146l-0.625,0.195
			l-2.261,0.709c-0.112-0.156-0.227-0.271-0.301-0.338c-0.118-0.107-0.244-0.199-0.373-0.273l0.278-2.48l0.078-0.697l0.066-0.594
			c0.469,0.163,1.198,0.571,2.021,1.327C46.236,36.096,46.725,36.838,46.947,37.299z"/>
		<path fill="#255373" d="M42.07,38.867c-0.004,0.005-0.012,0.005-0.018,0.01l-0.574,0.736c-0.037,0.047-0.092,0.22-0.092,0.385
			c0,0.111,0.023,0.219,0.092,0.281c0.168,0.156,0.543-0.026,0.604-0.104l0.575-0.737c0.013-0.018,0.021-0.041,0.021-0.066
			c0-0.005-0.004-0.01-0.005-0.016c-0.008-0.094-0.085-0.227-0.208-0.342C42.313,38.87,42.145,38.813,42.07,38.867z"/>
		<polygon fill="#255373" points="35.878,41.768 35.878,43.398 38.314,43.398 38.314,40.635 36.79,40.635 36.79,41.768 		"/>
		<rect x="36.79" y="35.74" fill="#255373" width="1.524" height="2.355"/>
		<rect x="31.301" y="41.768" fill="#255373" width="2.203" height="1.633"/>
		<rect x="26.725" y="41.768" fill="#255373" width="2.203" height="1.633"/>
	</g>
</g>
</svg>
