<?xml version="1.0" encoding="utf-8"?>
<!-- Generator: Adobe Illustrator 16.0.0, SVG Export Plug-In . SVG Version: 6.00 Build 0)  -->
<!DOCTYPE svg PUBLIC "-//W3C//DTD SVG 1.1//EN" "http://www.w3.org/Graphics/SVG/1.1/DTD/svg11.dtd">
<svg version="1.1" id="Layer_1" xmlns="http://www.w3.org/2000/svg" xmlns:xlink="http://www.w3.org/1999/xlink" x="0px" y="0px"
	 width="78px" height="78px" viewBox="0 0 78 78" enable-background="new 0 0 78 78" xml:space="preserve">
<g id="Layer_2">
	<circle fill="none" stroke="#F2A308" stroke-width="3" stroke-miterlimit="10" cx="38.75" cy="39.348" r="37"/>
</g>
<g id="Capa_1">
	<g>
		<path fill="#F2A308" d="M56.63,14.532l-0.003,0.002c-0.057,0.024-0.081,0.054-0.081,0.054l0.017,0.02L45.625,26.837H16.766v32.888
			H59.68V26.837h-5.012l6.684-7.474l-0.035-0.037c0.084-0.248,0.568-1.646-1.334-3.592C58.077,13.788,56.857,14.432,56.63,14.532
			L56.63,14.532z M29.831,48.621v7.023h-9.25v-7.023H29.831z M47.188,48.621v1.938v1.015v2.754v1.128v0.191H30.594v-7.023
			L47.188,48.621L47.188,48.621z M55.863,48.621v1.122h-7.914v-1.122H55.863z M55.863,52.389v1.121h-7.914v-1.121H55.863z
			 M47.949,55.646v-0.191v-1.13h7.914v1.321H47.949L47.949,55.646z M47.949,51.57v-1.012h7.914v1.012H47.949z M47.949,47.805v-1.02
			h7.914v1.02H47.949z M55.863,44.848v1.121h-7.914v-1.121H55.863z M55.863,30.916v13.115h-7.914v-4.283h-0.762v4.283v2.754v1.02
			H30.594h-0.763H20.58v-5.406h1.77v-1.631h-1.77v-9.852h14.21v1.286h1.524v-1.286h5.663l-0.658,0.738
			c0.844,0.179,1.882,0.838,2.77,1.67c1.073,1.004,1.842,2.165,2.053,3.049l4.879-5.457H55.863L55.863,30.916z"/>
		<path fill="#F2A308" d="M43.861,33.675c-1.25-1.149-2.322-1.587-2.863-1.61c-0.165-0.006-0.374,0.39-0.374,0.459
			c0,0.002,0,0.004,0,0.004l-0.104,0.935l-0.078,0.696l-0.355,3.177c0.003,0,0.004-0.002,0.008-0.002
			c0.223-0.019,0.479,0.091,0.711,0.299c0.109,0.101,0.355,0.365,0.379,0.697l2.891-0.907l0.625-0.197l0.779-0.242
			c0.172,0.014,0.394-0.197,0.394-0.256C45.863,36.141,45.162,34.871,43.861,33.675z M44.947,36.299l-0.469,0.146l-0.625,0.195
			l-2.262,0.709c-0.111-0.156-0.227-0.271-0.301-0.338c-0.118-0.107-0.244-0.199-0.373-0.273l0.277-2.48l0.078-0.697l0.066-0.594
			c0.469,0.163,1.198,0.571,2.021,1.327C44.236,35.096,44.725,35.838,44.947,36.299z"/>
		<path fill="#F2A308" d="M40.07,37.867c-0.004,0.005-0.012,0.005-0.018,0.01l-0.574,0.736c-0.037,0.047-0.092,0.22-0.092,0.385
			c0,0.111,0.022,0.219,0.092,0.281c0.168,0.156,0.543-0.026,0.604-0.104l0.575-0.737c0.013-0.018,0.021-0.041,0.021-0.066
			c0-0.005-0.004-0.01-0.005-0.016c-0.008-0.094-0.085-0.227-0.208-0.342C40.313,37.87,40.145,37.813,40.07,37.867z"/>
		<polygon fill="#F2A308" points="33.878,40.768 33.878,42.398 36.314,42.398 36.314,39.635 34.79,39.635 34.79,40.768 		"/>
		<rect x="34.79" y="34.74" fill="#F2A308" width="1.524" height="2.354"/>
		<rect x="29.301" y="40.768" fill="#F2A308" width="2.203" height="1.633"/>
		<rect x="24.725" y="40.768" fill="#F2A308" width="2.203" height="1.633"/>
	</g>
</g>
</svg>
