<?xml version="1.0" encoding="utf-8"?>
<!-- Generator: Adobe Illustrator 16.0.0, SVG Export Plug-In . SVG Version: 6.00 Build 0)  -->
<!DOCTYPE svg PUBLIC "-//W3C//DTD SVG 1.1//EN" "http://www.w3.org/Graphics/SVG/1.1/DTD/svg11.dtd">
<svg version="1.1" id="Layer_1" xmlns="http://www.w3.org/2000/svg" xmlns:xlink="http://www.w3.org/1999/xlink" x="0px" y="0px"
	 width="78px" height="78px" viewBox="26.5 38.5 78 78" enable-background="new 26.5 38.5 78 78" xml:space="preserve">
<g id="Layer_2">
	<ellipse fill="none" stroke="#F2A308" stroke-width="3" stroke-miterlimit="10" cx="65.5" cy="77.5" rx="36.708" ry="37.082"/>
</g>
<g id="Capa_1">
	<g>
		<g>
			<path fill="#F2A308" d="M90.185,75.045l-8.29-7.768V55.825c0-0.894-0.683-1.614-1.525-1.614h-6.105
				c-0.844,0-1.526,0.721-1.526,1.614v2.869l-6.661-6.24c-0.577-0.543-1.443-0.543-2.024,0L39.946,75.047
				c-0.475,0.443-0.639,1.154-0.414,1.781c0.226,0.627,0.794,1.043,1.426,1.043h7.633v20.307c0,0.893,0.683,1.615,1.525,1.615
				c0.843,0,1.527-0.723,1.527-1.615v-21.92c0-0.891-0.684-1.613-1.527-1.613h-5.135l20.084-18.828l8.182,7.67
				c0.452,0.423,1.089,0.524,1.637,0.264c0.552-0.26,0.9-0.835,0.9-1.473v-4.841h3.056v10.567c0,0.461,0.186,0.901,0.515,1.207
				l5.793,5.43h-5.134c-0.847,0-1.526,0.721-1.526,1.613v21.922c0,0.895,0.682,1.617,1.526,1.617c0.844,0,1.526-0.723,1.526-1.617
				V77.869h7.629c0.634,0,1.204-0.414,1.426-1.043C90.823,76.201,90.659,75.49,90.185,75.045z"/>
			<path fill="#F2A308" d="M72.034,84.314l1.219-7.688c0-0.984-0.766-1.795-1.698-1.795H58.579c-0.936,0-1.704,0.811-1.704,1.795
				l1.221,7.688c1.563,0.195,2.785,1.592,2.785,3.299c0,0.961-0.393,1.826-1.013,2.434h10.397c-0.622-0.607-1.016-1.475-1.016-2.434
				C69.249,85.904,70.472,84.506,72.034,84.314z"/>
			<path fill="#F2A308" d="M57.408,94.016c0,0.99,0.766,1.801,1.703,1.801v3.973h0.918v-3.973h10.072v3.973h0.917v-3.973
				c0.937,0,1.704-0.811,1.704-1.801v-3.07H57.408V94.016z"/>
			<path fill="#F2A308" d="M72.403,85.176c-1.273,0-2.303,1.092-2.303,2.436s1.03,2.432,2.303,2.432
				c1.272,0,2.303-1.088,2.303-2.432S73.676,85.176,72.403,85.176z M73.084,88.939l0.171-1.064c0-0.838-0.19-1.516-0.447-1.711
				c0.603,0.188,1.049,0.754,1.049,1.449C73.856,88.193,73.536,88.678,73.084,88.939z"/>
			<path fill="#F2A308" d="M60.029,87.611c0-1.344-1.031-2.436-2.303-2.436c-1.271,0-2.302,1.092-2.302,2.436
				s1.032,2.432,2.302,2.432C58.998,90.043,60.029,88.959,60.029,87.611z M57.046,88.939c-0.452-0.26-0.773-0.746-0.773-1.33
				c0-0.693,0.449-1.262,1.05-1.449c-0.254,0.195-0.447,0.873-0.447,1.707L57.046,88.939z"/>
		</g>
	</g>
</g>
</svg>
